<?xml version="1.0" encoding="UTF-8" standalone="no"?>
<!-- Created with Inkscape (http://www.inkscape.org/) -->

<svg
   xmlns:dc="http://purl.org/dc/elements/1.1/"
   xmlns:cc="http://creativecommons.org/ns#"
   xmlns:rdf="http://www.w3.org/1999/02/22-rdf-syntax-ns#"
   xmlns:svg="http://www.w3.org/2000/svg"
   xmlns="http://www.w3.org/2000/svg"
   xmlns:sodipodi="http://sodipodi.sourceforge.net/DTD/sodipodi-0.dtd"
   xmlns:inkscape="http://www.inkscape.org/namespaces/inkscape"
   id="svg3431"
   version="1.1"
   inkscape:version="0.48.4 r9939"
   width="250"
   height="76"
   sodipodi:docname="canaan-new-250.svg"
   inkscape:export-filename="/home/rejon/Downloads/canaan-0.1-300.png"
   inkscape:export-xdpi="108"
   inkscape:export-ydpi="108">
  <metadata
     id="metadata3437">
    <rdf:RDF>
      <cc:Work
         rdf:about="">
        <dc:format>image/svg+xml</dc:format>
        <dc:type
           rdf:resource="http://purl.org/dc/dcmitype/StillImage" />
        <dc:title></dc:title>
      </cc:Work>
    </rdf:RDF>
  </metadata>
  <defs
     id="defs3435" />
  <sodipodi:namedview
     pagecolor="#ffffff"
     bordercolor="#666666"
     borderopacity="1"
     objecttolerance="10"
     gridtolerance="10"
     guidetolerance="10"
     inkscape:pageopacity="0"
     inkscape:pageshadow="2"
     inkscape:window-width="1920"
     inkscape:window-height="1054"
     id="namedview3433"
     showgrid="false"
     inkscape:zoom="3.3941125"
     inkscape:cx="137.18595"
     inkscape:cy="-1.1535347"
     inkscape:window-x="0"
     inkscape:window-y="0"
     inkscape:window-maximized="1"
     inkscape:current-layer="layer1" />
  <g
     inkscape:groupmode="layer"
     id="layer1"
     inkscape:label="top"
     style="display:inline">
    <g
       style="opacity:0.9;display:inline"
       transform="matrix(0.23119947,0,0,0.23119947,-39.080496,-53.691248)"
       id="g3060">
      <path
         style="fill:#07538c"
         inkscape:connector-curvature="0"
         id="path3062"
         d="m 296,481.1 c -18.2,-11.1 -38.4,-22 -57.6,-33.1 -1.7,-0.9 -3.7,-0.9 -5.4,0 l -28.7,16.7 c -3.6,2 -3.6,7.3 0,9.3 28.8,16.7 56.5,33.3 86.3,50 3.6,2 8,-0.6 8,-4.7 v -33.4 c 0,-2.2 -1.1,-3.8 -2.6,-4.8 z" />
      <path
         style="fill:#07538c"
         inkscape:connector-curvature="0"
         id="path3064"
         d="m 236.7,341.2 c 19.8,-11.3 40.9,-22.7 59.3,-34 1.7,-1 2.5,-2.7 2.5,-4.6 v -33.5 c 0,-4.1 -4.5,-6.8 -8,-4.7 -20.6,11.5 -39.6,23.1 -59.6,34.5 -9.4,5.4 -18.7,10.8 -28.3,16.3 -3.6,2 -3.6,7.3 0,9.3 l 28.8,16.7 c 1.6,0.9 3.7,0.9 5.3,0 z" />
      <path
         style="fill:#07538c"
         inkscape:connector-curvature="0"
         id="path3066"
         d="m 227.2,428.3 c 0,-22.2 -0.1,-44.2 0,-66.4 0,-1.9 -1,-3.7 -2.7,-4.7 L 196,340.7 c -3.6,-2 -8,0.5 -8,4.7 v 99.3 c 0,4.1 4.5,6.8 8,4.7 L 224.7,433 c 1.5,-1 2.5,-2.8 2.5,-4.7 z" />
      <path
         style="fill:#07538c"
         inkscape:connector-curvature="0"
         id="path3068"
         d="m 376.1,341.2 c -19.8,-11.3 -40.9,-22.7 -59.3,-34 -1.7,-1 -2.5,-2.7 -2.5,-4.6 v -33.5 c 0,-4.1 4.5,-6.8 8,-4.7 20.6,11.5 39.6,23.1 59.6,34.5 9.4,5.4 18.7,10.8 28.3,16.3 3.6,2 3.6,7.3 0,9.3 l -28.8,16.7 c -1.6,0.9 -3.7,0.9 -5.3,0 z" />
      <path
         style="fill:#729ece"
         inkscape:connector-curvature="0"
         d="m 316.4,481.1 c 18.2,-11.1 38.4,-22 57.6,-33.1 1.7,-0.9 3.7,-0.9 5.4,0 l 28.7,16.7 c 3.6,2 3.6,7.3 0,9.3 -28.8,16.7 -56.5,33.3 -86.3,50 -3.6,2 -8,-0.6 -8,-4.7 v -33.4 c 0.1,-2.2 0.9,-3.8 2.6,-4.8 z"
         id="path3070" />
      <path
         style="fill:#729ece"
         inkscape:connector-curvature="0"
         d="m 385.1,428.3 c 0,-22.2 0.1,-44.2 0,-66.4 0,-1.9 1,-3.7 2.7,-4.7 l 28.6,-16.4 c 3.6,-2 8,0.5 8,4.7 v 99.3 c 0,4.1 -4.5,6.8 -8,4.7 L 387.7,433 c -1.6,-1 -2.6,-2.8 -2.6,-4.7 z"
         id="path3072" />
    </g>
    <g
       style="opacity:0.9;display:inline"
       transform="matrix(0.65481022,0,0,0.65481022,-45.485211,-338.29707)"
       id="g3074">
      <path
         style="fill:#07538c"
         inkscape:connector-curvature="0"
         id="path3076"
         d="m 231.8,584.9 c -2,4 -5,7 -8.4,9.2 -3.6,2.2 -7.6,3.3 -12.1,3.4 -6.4,0.1 -11.9,-2.2 -16.4,-6.9 -4.6,-4.7 -6.9,-10.3 -6.9,-16.7 0,-6.6 2.3,-12.2 6.9,-16.7 4.5,-4.5 9.9,-6.6 16.4,-6.5 4.5,0 8.7,1.1 12.4,3.4 3.6,2.3 6.2,5.2 8.3,9 h -5.1 c -3.8,-5.5 -9,-8.2 -15.8,-8.2 -5.1,0 -9.4,1.8 -13,5.5 -3.7,3.7 -5.5,8 -5.6,13.1 -0.1,5.4 1.7,9.9 5.5,13.8 3.7,3.8 8.3,5.9 13.5,5.9 3.1,0 6.1,-0.8 8.9,-2.4 2.8,-1.5 5,-3.4 6.5,-5.7 h 5 v -0.2 z" />
      <path
         style="fill:#07538c"
         inkscape:connector-curvature="0"
         id="path3078"
         d="m 265.2,579.8 v 0.3 16.7 h -4.5 v -5.2 c -3.7,4.2 -8.2,6.1 -13.4,6 -4.6,-0.1 -8.5,-1.9 -11.9,-5.4 -3.3,-3.4 -4.8,-7.5 -4.8,-12.2 0,-5 1.8,-9.2 5.2,-12.6 3.4,-3.6 7.6,-5.2 12.6,-5 4.7,0.1 8.8,1.9 12,5.4 3.2,3.2 4.9,7.3 4.8,12 z m -4.6,-0.3 c -0.1,-3.6 -1.4,-6.6 -3.8,-9 -2.4,-2.5 -5.4,-3.8 -8.8,-3.8 -3.6,0 -6.6,1.3 -9.2,3.8 -2.6,2.5 -3.8,5.6 -3.8,9.2 -0.1,3.6 1.1,6.6 3.6,9.3 2.4,2.7 5.4,4.1 8.8,4.2 3.7,0.1 6.9,-1.1 9.4,-3.8 2.6,-2.9 3.9,-6.2 3.8,-9.9 z" />
      <path
         style="fill:#07538c"
         inkscape:connector-curvature="0"
         id="path3080"
         d="M 299.5,596.7 H 295 V 577 c 0,-2.8 -1,-5.2 -3.1,-7.3 -2,-2 -4.5,-3.1 -7.3,-3.1 -2.8,0 -5.2,1 -7.3,3.1 -2,2 -3.1,4.5 -3.1,7.3 v 19.6 h -4.5 v -19.1 c 0,-4.3 1.4,-8 4.2,-10.8 2.8,-2.9 6.4,-4.3 10.7,-4.3 4.2,0 7.8,1.4 10.6,4.3 2.8,2.9 4.2,6.5 4.2,10.8 v 19.1 h 0.1 z" />
      <path
         style="fill:#07538c"
         inkscape:connector-curvature="0"
         id="path3082"
         d="m 338.7,579.8 v 0.3 16.7 h -4.5 v -5.2 c -3.7,4.2 -8.2,6.1 -13.4,6 -4.6,-0.1 -8.5,-1.9 -11.9,-5.4 -3.3,-3.4 -4.8,-7.5 -4.8,-12.2 0,-5 1.8,-9.2 5.2,-12.6 3.4,-3.6 7.6,-5.2 12.6,-5 4.7,0.1 8.8,1.9 12,5.4 3.4,3.2 4.9,7.3 4.8,12 z m -4.5,-0.3 c -0.1,-3.6 -1.4,-6.6 -3.8,-9 -2.4,-2.5 -5.4,-3.8 -8.8,-3.8 -3.6,0 -6.6,1.3 -9.2,3.8 -2.5,2.5 -3.8,5.6 -3.8,9.2 -0.1,3.6 1.1,6.6 3.6,9.3 2.4,2.7 5.4,4.1 8.8,4.2 3.7,0.1 6.9,-1.1 9.4,-3.8 2.7,-2.9 4,-6.2 3.8,-9.9 z" />
      <path
         style="fill:#07538c"
         inkscape:connector-curvature="0"
         id="path3084"
         d="m 378,579.8 v 0.3 16.7 h -4.5 v -5.2 c -3.7,4.2 -8.2,6.1 -13.4,6 -4.6,-0.1 -8.5,-1.9 -11.9,-5.4 -3.3,-3.4 -4.8,-7.5 -4.8,-12.2 0,-5 1.8,-9.2 5.2,-12.6 3.4,-3.6 7.6,-5.2 12.6,-5 4.7,0.1 8.8,1.9 12,5.4 3.4,3.2 4.9,7.3 4.8,12 z m -4.5,-0.3 c -0.1,-3.6 -1.4,-6.6 -3.8,-9 -2.4,-2.5 -5.4,-3.8 -8.8,-3.8 -3.6,0 -6.6,1.3 -9.2,3.8 -2.6,2.5 -3.8,5.6 -3.8,9.2 -0.1,3.6 1.1,6.6 3.6,9.3 2.4,2.7 5.4,4.1 8.8,4.2 3.7,0.1 6.9,-1.1 9.4,-3.8 2.5,-2.9 3.8,-6.2 3.8,-9.9 z" />
      <path
         style="fill:#07538c"
         inkscape:connector-curvature="0"
         id="path3086"
         d="m 412.4,596.7 h -4.5 V 577 c 0,-2.8 -1,-5.2 -3.1,-7.3 -2,-2 -4.5,-3.1 -7.3,-3.1 -2.8,0 -5.2,1 -7.3,3.1 -2,2 -3.1,4.5 -3.1,7.3 v 19.6 h -4.5 v -19.1 c 0,-4.3 1.4,-8 4.2,-10.8 2.8,-2.9 6.4,-4.3 10.7,-4.3 4.2,0 7.8,1.4 10.6,4.3 2.8,2.9 4.2,6.5 4.2,10.8 v 19.1 h 0.1 z" />
    </g>
  </g>
</svg>
