<?xml version="1.0" encoding="UTF-8" standalone="no"?>
<!-- Created with Inkscape (http://www.inkscape.org/) -->

<svg
   xmlns:dc="http://purl.org/dc/elements/1.1/"
   xmlns:cc="http://creativecommons.org/ns#"
   xmlns:rdf="http://www.w3.org/1999/02/22-rdf-syntax-ns#"
   xmlns:svg="http://www.w3.org/2000/svg"
   xmlns="http://www.w3.org/2000/svg"
   xmlns:sodipodi="http://sodipodi.sourceforge.net/DTD/sodipodi-0.dtd"
   xmlns:inkscape="http://www.inkscape.org/namespaces/inkscape"
   id="svg3431"
   version="1.1"
   inkscape:version="0.91 r13725"
   width="250"
   height="76"
   sodipodi:docname="canaan-logo-0.1.svg"
   inkscape:export-filename="/home/rejon/Downloads/canaan-0.1-300.png"
   inkscape:export-xdpi="108"
   inkscape:export-ydpi="108">
  <metadata
     id="metadata3437">
    <rdf:RDF>
      <cc:Work
         rdf:about="">
        <dc:format>image/svg+xml</dc:format>
        <dc:type
           rdf:resource="http://purl.org/dc/dcmitype/StillImage" />
        <dc:title />
      </cc:Work>
    </rdf:RDF>
  </metadata>
  <defs
     id="defs3435">
    <clipPath
       id="clipPath3568"
       clipPathUnits="userSpaceOnUse">
      <path
         inkscape:connector-curvature="0"
         id="path3570"
         d="m 0,875.908 629.288,0 L 629.288,0 0,0 0,875.908 Z" />
    </clipPath>
  </defs>
  <sodipodi:namedview
     pagecolor="#ffffff"
     bordercolor="#666666"
     borderopacity="1"
     objecttolerance="10"
     gridtolerance="10"
     guidetolerance="10"
     inkscape:pageopacity="0"
     inkscape:pageshadow="2"
     inkscape:window-width="1920"
     inkscape:window-height="1239"
     id="namedview3433"
     showgrid="false"
     inkscape:zoom="1.2"
     inkscape:cx="-10.3764"
     inkscape:cy="89.59163"
     inkscape:window-x="0"
     inkscape:window-y="41"
     inkscape:window-maximized="1"
     inkscape:current-layer="layer1"
     showguides="true"
     inkscape:guide-bbox="true"
     inkscape:snap-bbox="true"
     inkscape:bbox-paths="true"
     inkscape:bbox-nodes="true"
     inkscape:snap-bbox-edge-midpoints="false" />
  <g
     inkscape:groupmode="layer"
     id="layer1"
     inkscape:label="top"
     style="display:inline">
    <g
       id="g3682"
       transform="matrix(0.54442917,0,0,0.54442917,54.582604,-76.660572)">
      <g
         id="text3556"
         style="font-variant:normal;font-weight:normal;font-stretch:normal;font-size:83.74838257px;font-family:Comfortaa;-inkscape-font-specification:Comfortaa;writing-mode:lr-tb;fill:#145fa5;fill-opacity:1;fill-rule:nonzero;stroke:none">
        <path
           id="path3670"
           d="m 91.746756,230.29113 q 1.349461,0 2.289994,0.98142 0.981427,0.94054 0.981427,2.29 0,1.34946 -0.940534,2.28999 -9.119086,7.27891 -20.569061,7.27891 -13.535505,0 -23.145305,-9.5689 -9.568907,-9.6098 -9.568907,-23.14531 0,-13.5355 9.568907,-23.10441 9.6098,-9.6098 23.145305,-9.6098 11.695331,0 20.814418,7.48338 0.940533,0.98142 0.940533,2.33088 0,1.34947 -0.981426,2.33089 -0.940534,0.94054 -2.289995,0.94054 -1.349461,0 -2.330888,-0.98143 -6.910877,-5.56142 -16.152642,-5.56142 -10.836582,0 -18.524422,7.68784 -7.646947,7.64695 -7.646947,18.48353 0,10.83659 7.646947,18.52443 7.68784,7.64694 18.524422,7.64694 9.364444,0 16.357106,-5.72499 0.817856,-0.57249 1.881068,-0.57249 z"
           inkscape:connector-curvature="0" />
        <path
           id="path3672"
           d="m 124.24437,203.8744 q -6.7882,0 -11.57265,4.78445 -4.78446,4.78446 -4.78446,11.57266 0,6.7882 4.78446,11.57265 4.78445,4.78445 11.57265,4.78445 6.7882,0 11.57265,-4.78445 4.78445,-4.78445 4.78445,-11.57265 0,-6.7882 -4.78445,-11.57266 -4.78445,-4.78445 -11.57265,-4.78445 z m 16.3571,32.38707 q -6.86998,6.86998 -16.3571,6.86998 -9.48712,0 -16.19354,-6.70641 -6.70641,-6.70641 -6.70641,-16.19353 0,-9.48713 6.70641,-16.19354 6.70642,-6.70641 16.19354,-6.70641 9.48712,0 16.19353,6.70641 6.70642,6.70641 6.70642,16.19354 l 0,19.62852 q 0,1.34946 -0.98143,2.33089 -0.94053,0.94053 -2.29,0.94053 -1.34946,0 -2.33088,-0.94053 -0.94054,-0.98143 -0.94054,-2.33089 l 0,-3.59856 z"
           inkscape:connector-curvature="0" />
        <path
           id="path3674"
           d="m 153.68719,200.60298 q 0,-1.34946 0.94054,-2.29 0.98142,-0.98142 2.33088,-0.98142 1.34947,0 2.29,0.98142 0.98143,0.94054 0.98143,2.29 l 0,2.65803 q 6.13391,-5.92945 14.72139,-5.92945 8.79194,0 15.00765,6.25659 6.25659,6.2157 6.25659,15.00765 l 0,21.26423 q 0,1.34946 -0.98143,2.33089 -0.94053,0.94053 -2.28999,0.94053 -1.34946,0 -2.33089,-0.94053 -0.94053,-0.98143 -0.94053,-2.33089 l 0,-21.26423 q 0,-6.09303 -4.33464,-10.38677 -4.29374,-4.33463 -10.38676,-4.33463 -6.09302,0 -10.42765,4.33463 -4.29374,4.29374 -4.29374,10.38677 l 0,21.26423 q 0,1.34946 -0.98143,2.33089 -0.94053,0.94053 -2.29,0.94053 -1.34946,0 -2.33088,-0.94053 -0.94054,-0.98143 -0.94054,-2.33089 l 0,-39.25705 z"
           inkscape:connector-curvature="0" />
        <path
           id="path3676"
           d="m 225.66368,203.8744 q -6.7882,0 -11.57265,4.78445 -4.78446,4.78446 -4.78446,11.57266 0,6.7882 4.78446,11.57265 4.78445,4.78445 11.57265,4.78445 6.7882,0 11.57265,-4.78445 4.78446,-4.78445 4.78446,-11.57265 0,-6.7882 -4.78446,-11.57266 -4.78445,-4.78445 -11.57265,-4.78445 z m 16.35711,32.38707 q -6.86999,6.86998 -16.35711,6.86998 -9.48712,0 -16.19354,-6.70641 -6.70641,-6.70641 -6.70641,-16.19353 0,-9.48713 6.70641,-16.19354 6.70642,-6.70641 16.19354,-6.70641 9.48712,0 16.19353,6.70641 6.70642,6.70641 6.70642,16.19354 l 0,19.62852 q 0,1.34946 -0.98143,2.33089 -0.94053,0.94053 -2.28999,0.94053 -1.34946,0 -2.33089,-0.94053 -0.94053,-0.98143 -0.94053,-2.33089 l 0,-3.59856 z"
           inkscape:connector-curvature="0" />
        <path
           id="path3678"
           d="m 278.00639,203.8744 q -6.7882,0 -11.57265,4.78445 -4.78445,4.78446 -4.78445,11.57266 0,6.7882 4.78445,11.57265 4.78445,4.78445 11.57265,4.78445 6.7882,0 11.57265,-4.78445 4.78446,-4.78445 4.78446,-11.57265 0,-6.7882 -4.78446,-11.57266 -4.78445,-4.78445 -11.57265,-4.78445 z m 16.35711,32.38707 q -6.86999,6.86998 -16.35711,6.86998 -9.48712,0 -16.19353,-6.70641 -6.70642,-6.70641 -6.70642,-16.19353 0,-9.48713 6.70642,-16.19354 6.70641,-6.70641 16.19353,-6.70641 9.48712,0 16.19354,6.70641 6.70641,6.70641 6.70641,16.19354 l 0,19.62852 q 0,1.34946 -0.98143,2.33089 -0.94053,0.94053 -2.28999,0.94053 -1.34946,0 -2.33089,-0.94053 -0.94053,-0.98143 -0.94053,-2.33089 l 0,-3.59856 z"
           inkscape:connector-curvature="0" />
        <path
           id="path3680"
           d="m 307.44922,200.60298 q 0,-1.34946 0.94053,-2.29 0.98143,-0.98142 2.33089,-0.98142 1.34946,0 2.28999,0.98142 0.98143,0.94054 0.98143,2.29 l 0,2.65803 q 6.13391,-5.92945 14.72139,-5.92945 8.79195,0 15.00765,6.25659 6.25659,6.2157 6.25659,15.00765 l 0,21.26423 q 0,1.34946 -0.98142,2.33089 -0.94054,0.94053 -2.29,0.94053 -1.34946,0 -2.33089,-0.94053 -0.94053,-0.98143 -0.94053,-2.33089 l 0,-21.26423 q 0,-6.09303 -4.33463,-10.38677 -4.29374,-4.33463 -10.38677,-4.33463 -6.09302,0 -10.42765,4.33463 -4.29374,4.29374 -4.29374,10.38677 l 0,21.26423 q 0,1.34946 -0.98143,2.33089 -0.94053,0.94053 -2.28999,0.94053 -1.34946,0 -2.33089,-0.94053 -0.94053,-0.98143 -0.94053,-2.33089 l 0,-39.25705 z"
           inkscape:connector-curvature="0" />
      </g>
      <g
         transform="matrix(1.25,0,0,-1.25,-270.55442,776.43832)"
         id="g3566"
         clip-path="url(#clipPath3568)">
        <g
           id="g3572"
           transform="translate(181.7524,409.0838)">
          <path
             d="m 0,0 0,11.535 c 0,0.645 -0.344,1.241 -0.902,1.563 l -20.377,11.765 c -0.559,0.323 -1.246,0.323 -1.805,0 l -9.99,-5.768 c -1.203,-0.694 -1.203,-2.43 0,-3.125 L -2.707,-1.563 C -1.504,-2.257 0,-1.389 0,0"
             style="fill:#145fa5;fill-opacity:1;fill-rule:nonzero;stroke:none"
             id="path3574"
             inkscape:connector-curvature="0" />
        </g>
        <g
           id="g3576"
           transform="translate(145.7289,433.2902)">
          <path
             d="m 0,0 9.99,5.768 c 0.558,0.322 0.902,0.918 0.902,1.562 l 0,23.529 c 0,0.645 -0.344,1.24 -0.902,1.563 L 0,38.189 c -1.203,0.695 -2.706,-0.173 -2.706,-1.562 l 0,-35.064 C -2.706,0.174 -1.203,-0.694 0,0"
             style="fill:#145fa5;fill-opacity:1;fill-rule:nonzero;stroke:none"
             id="path3578"
             inkscape:connector-curvature="0" />
        </g>
        <g
           id="g3580"
           transform="translate(148.6781,476.5903)">
          <path
             d="m 0,0 9.99,-5.768 c 0.558,-0.322 1.246,-0.322 1.804,0 L 32.172,5.999 c 0.558,0.322 0.902,0.918 0.902,1.563 l 0,11.534 c 0,1.389 -1.503,2.257 -2.706,1.562 L 0,3.125 C -1.203,2.431 -1.203,0.695 0,0"
             style="fill:#145fa5;fill-opacity:1;fill-rule:nonzero;stroke:none"
             id="path3582"
             inkscape:connector-curvature="0" />
        </g>
        <g
           id="g3584"
           transform="translate(187.6517,495.686)">
          <path
             d="m 0,0 0,-11.535 c 0,-0.645 0.344,-1.24 0.902,-1.563 l 20.379,-11.765 c 0.558,-0.323 1.246,-0.323 1.804,0 l 9.991,5.767 c 1.203,0.695 1.203,2.431 0,3.126 L 2.706,1.563 C 1.504,2.257 0,1.389 0,0"
             style="fill:#145fa5;fill-opacity:1;fill-rule:nonzero;stroke:none"
             id="path3586"
             inkscape:connector-curvature="0" />
        </g>
        <g
           id="g3588"
           transform="translate(220.7282,428.1795)">
          <path
             d="m 0,0 -9.991,5.768 c -0.559,0.322 -1.246,0.322 -1.805,0 L -32.174,-5.997 c -0.559,-0.323 -0.902,-0.918 -0.902,-1.563 l 0,-11.536 c 0,-1.389 1.503,-2.257 2.706,-1.562 L 0,-3.125 C 1.203,-2.431 1.203,-0.694 0,0"
             style="fill:#9ac0df;fill-opacity:1;fill-rule:nonzero;stroke:none"
             id="path3590"
             inkscape:connector-curvature="0" />
        </g>
        <g
           id="g3592"
           transform="translate(223.678,471.4796)">
          <path
             d="m 0,0 -9.99,-5.768 c -0.558,-0.322 -0.902,-0.918 -0.902,-1.562 l 0,-23.529 c 0,-0.645 0.344,-1.24 0.902,-1.563 L 0,-38.189 c 1.203,-0.695 2.706,0.173 2.706,1.562 l 0,35.064 C 2.706,-0.174 1.203,0.694 0,0"
             style="fill:#9ac0df;fill-opacity:1;fill-rule:nonzero;stroke:none"
             id="path3594"
             inkscape:connector-curvature="0" />
        </g>
      </g>
    </g>
  </g>
</svg>
