<?xml version="1.0" encoding="UTF-8" standalone="no"?>
<!-- Created with Inkscape (http://www.inkscape.org/) -->

<svg
   xmlns:dc="http://purl.org/dc/elements/1.1/"
   xmlns:cc="http://creativecommons.org/ns#"
   xmlns:rdf="http://www.w3.org/1999/02/22-rdf-syntax-ns#"
   xmlns:svg="http://www.w3.org/2000/svg"
   xmlns="http://www.w3.org/2000/svg"
   xmlns:sodipodi="http://sodipodi.sourceforge.net/DTD/sodipodi-0.dtd"
   xmlns:inkscape="http://www.inkscape.org/namespaces/inkscape"
   id="svg3431"
   version="1.1"
   inkscape:version="0.91 r13725"
   width="250"
   height="76"
   sodipodi:docname="canaan-logo-reverse-0.1.svg"
   inkscape:export-filename="/home/rejon/Downloads/canaan-0.1-300.png"
   inkscape:export-xdpi="108"
   inkscape:export-ydpi="108">
  <metadata
     id="metadata3437">
    <rdf:RDF>
      <cc:Work
         rdf:about="">
        <dc:format>image/svg+xml</dc:format>
        <dc:type
           rdf:resource="http://purl.org/dc/dcmitype/StillImage" />
        <dc:title></dc:title>
      </cc:Work>
    </rdf:RDF>
  </metadata>
  <defs
     id="defs3435">
    <clipPath
       id="clipPath3568"
       clipPathUnits="userSpaceOnUse">
      <path
         inkscape:connector-curvature="0"
         id="path3570"
         d="m 0,875.908 629.288,0 L 629.288,0 0,0 0,875.908 Z" />
    </clipPath>
  </defs>
  <sodipodi:namedview
     pagecolor="#ffffff"
     bordercolor="#666666"
     borderopacity="1"
     objecttolerance="10"
     gridtolerance="10"
     guidetolerance="10"
     inkscape:pageopacity="0"
     inkscape:pageshadow="2"
     inkscape:window-width="1920"
     inkscape:window-height="1239"
     id="namedview3433"
     showgrid="false"
     inkscape:zoom="2.4"
     inkscape:cx="159.67087"
     inkscape:cy="3.4255192"
     inkscape:window-x="0"
     inkscape:window-y="41"
     inkscape:window-maximized="1"
     inkscape:current-layer="layer1"
     showguides="true"
     inkscape:guide-bbox="true"
     inkscape:snap-bbox="true"
     inkscape:bbox-paths="true"
     inkscape:bbox-nodes="true"
     inkscape:snap-bbox-edge-midpoints="false" />
  <g
     inkscape:groupmode="layer"
     id="layer1"
     inkscape:label="top"
     style="display:inline">
    <path
       id="path3670"
       d="m 104.53221,48.716637 q 0.73469,0 1.24674,0.534313 0.53432,0.512058 0.53432,1.246743 0,0.734686 -0.51205,1.246738 -4.9647,3.962851 -11.1984,3.962851 -7.369123,0 -12.600979,-5.209589 -5.209592,-5.231855 -5.209592,-12.600982 0,-7.369121 5.209592,-12.578714 5.231856,-5.231856 12.600979,-5.231856 6.36728,0 11.33198,4.07417 0.51205,0.534314 0.51205,1.269 0,0.73469 -0.53432,1.269004 -0.51205,0.512057 -1.24674,0.512057 -0.73468,0 -1.269,-0.534319 -3.762483,-3.027799 -8.79397,-3.027799 -5.899751,0 -10.085235,4.185484 -4.163221,4.163223 -4.163221,10.062973 0,5.899756 4.163221,10.08524 4.185484,4.163218 10.085235,4.163218 5.098277,0 8.90529,-3.116852 0.44526,-0.31168 1.0241,-0.31168 z"
       inkscape:connector-curvature="0"
       style="font-variant:normal;font-weight:normal;font-stretch:normal;font-size:medium;font-family:Comfortaa;-inkscape-font-specification:Comfortaa;writing-mode:lr-tb;fill:#000000;fill-opacity:1;fill-rule:nonzero;stroke:none" />
    <path
       id="path3672"
       d="m 122.22486,34.334598 q -3.69569,0 -6.30048,2.604795 -2.6048,2.604799 -2.6048,6.300493 0,3.695694 2.6048,6.300488 2.60479,2.604795 6.30048,2.604795 3.6957,0 6.30049,-2.604795 2.6048,-2.604794 2.6048,-6.300488 0,-3.695694 -2.6048,-6.300493 -2.60479,-2.604795 -6.30049,-2.604795 z m 8.90529,17.632466 q -3.74022,3.740218 -8.90529,3.740218 -5.16506,0 -8.81623,-3.651166 -3.65117,-3.651165 -3.65117,-8.81623 0,-5.16507 3.65117,-8.816235 3.65117,-3.651166 8.81623,-3.651166 5.16507,0 8.81623,3.651166 3.65117,3.651165 3.65117,8.816235 l 0,10.686339 q 0,0.734685 -0.53432,1.269005 -0.51205,0.512052 -1.24674,0.512052 -0.73468,0 -1.269,-0.512052 -0.51205,-0.53432 -0.51205,-1.269005 l 0,-1.959161 z"
       inkscape:connector-curvature="0"
       style="font-variant:normal;font-weight:normal;font-stretch:normal;font-size:medium;font-family:Comfortaa;-inkscape-font-specification:Comfortaa;writing-mode:lr-tb;fill:#000000;fill-opacity:1;fill-rule:nonzero;stroke:none" />
    <path
       id="path3674"
       d="m 138.25439,32.553542 q 0,-0.734685 0.51206,-1.246743 0.53431,-0.534314 1.269,-0.534314 0.73469,0 1.24674,0.534314 0.53432,0.512058 0.53432,1.246743 l 0,1.447109 q 3.33948,-3.228166 8.01476,-3.228166 4.78658,0 8.1706,3.406271 3.40627,3.384008 3.40627,8.170602 l 0,11.576867 q 0,0.734685 -0.53432,1.269005 -0.51205,0.512052 -1.24674,0.512052 -0.73468,0 -1.269,-0.512052 -0.51205,-0.53432 -0.51205,-1.269005 l 0,-11.576867 q 0,-3.317223 -2.35991,-5.654861 -2.33764,-2.359899 -5.65485,-2.359899 -3.31722,0 -5.67712,2.359899 -2.33764,2.337638 -2.33764,5.654861 l 0,11.576867 q 0,0.734685 -0.53432,1.269005 -0.51205,0.512052 -1.24674,0.512052 -0.73469,0 -1.269,-0.512052 -0.51206,-0.53432 -0.51206,-1.269005 l 0,-21.372683 z"
       inkscape:connector-curvature="0"
       style="font-variant:normal;font-weight:normal;font-stretch:normal;font-size:medium;font-family:Comfortaa;-inkscape-font-specification:Comfortaa;writing-mode:lr-tb;fill:#000000;fill-opacity:1;fill-rule:nonzero;stroke:none" />
    <path
       id="path3676"
       d="m 177.44049,34.334598 q -3.69569,0 -6.30048,2.604795 -2.6048,2.604799 -2.6048,6.300493 0,3.695694 2.6048,6.300488 2.60479,2.604795 6.30048,2.604795 3.6957,0 6.30049,-2.604795 2.6048,-2.604794 2.6048,-6.300488 0,-3.695694 -2.6048,-6.300493 -2.60479,-2.604795 -6.30049,-2.604795 z m 8.90529,17.632466 q -3.74022,3.740218 -8.90529,3.740218 -5.16506,0 -8.81623,-3.651166 -3.65117,-3.651165 -3.65117,-8.81623 0,-5.16507 3.65117,-8.816235 3.65117,-3.651166 8.81623,-3.651166 5.16507,0 8.81623,3.651166 3.65117,3.651165 3.65117,8.816235 l 0,10.686339 q 0,0.734685 -0.53431,1.269005 -0.51206,0.512052 -1.24674,0.512052 -0.73469,0 -1.26901,-0.512052 -0.51205,-0.53432 -0.51205,-1.269005 l 0,-1.959161 z"
       inkscape:connector-curvature="0"
       style="font-variant:normal;font-weight:normal;font-stretch:normal;font-size:medium;font-family:Comfortaa;-inkscape-font-specification:Comfortaa;writing-mode:lr-tb;fill:#000000;fill-opacity:1;fill-rule:nonzero;stroke:none" />
    <path
       id="path3678"
       d="m 205.93739,34.334598 q -3.69569,0 -6.30049,2.604795 -2.60479,2.604799 -2.60479,6.300493 0,3.695694 2.60479,6.300488 2.6048,2.604795 6.30049,2.604795 3.6957,0 6.30049,-2.604795 2.6048,-2.604794 2.6048,-6.300488 0,-3.695694 -2.6048,-6.300493 -2.60479,-2.604795 -6.30049,-2.604795 z m 8.90529,17.632466 q -3.74022,3.740218 -8.90529,3.740218 -5.16506,0 -8.81623,-3.651166 -3.65117,-3.651165 -3.65117,-8.81623 0,-5.16507 3.65117,-8.816235 3.65117,-3.651166 8.81623,-3.651166 5.16507,0 8.81624,3.651166 3.65116,3.651165 3.65116,8.816235 l 0,10.686339 q 0,0.734685 -0.53432,1.269005 -0.51205,0.512052 -1.24673,0.512052 -0.73469,0 -1.26901,-0.512052 -0.51205,-0.53432 -0.51205,-1.269005 l 0,-1.959161 z"
       inkscape:connector-curvature="0"
       style="font-variant:normal;font-weight:normal;font-stretch:normal;font-size:medium;font-family:Comfortaa;-inkscape-font-specification:Comfortaa;writing-mode:lr-tb;fill:#000000;fill-opacity:1;fill-rule:nonzero;stroke:none" />
    <path
       id="path3680"
       d="m 221.96693,32.553542 q 0,-0.734685 0.51205,-1.246743 0.53432,-0.534314 1.269,-0.534314 0.73469,0 1.24674,0.534314 0.53432,0.512058 0.53432,1.246743 l 0,1.447109 q 3.33948,-3.228166 8.01475,-3.228166 4.7866,0 8.17061,3.406271 3.40627,3.384008 3.40627,8.170602 l 0,11.576867 q 0,0.734685 -0.53432,1.269005 -0.51205,0.512052 -1.24674,0.512052 -0.73468,0 -1.269,-0.512052 -0.51206,-0.53432 -0.51206,-1.269005 l 0,-11.576867 q 0,-3.317223 -2.35989,-5.654861 -2.33764,-2.359899 -5.65487,-2.359899 -3.31721,0 -5.67711,2.359899 -2.33764,2.337638 -2.33764,5.654861 l 0,11.576867 q 0,0.734685 -0.53432,1.269005 -0.51205,0.512052 -1.24674,0.512052 -0.73468,0 -1.269,-0.512052 -0.51205,-0.53432 -0.51205,-1.269005 l 0,-21.372683 z"
       inkscape:connector-curvature="0"
       style="font-variant:normal;font-weight:normal;font-stretch:normal;font-size:medium;font-family:Comfortaa;-inkscape-font-specification:Comfortaa;writing-mode:lr-tb;fill:#000000;fill-opacity:1;fill-rule:nonzero;stroke:none" />
    <g
       id="g3572"
       transform="matrix(0.68053646,0,0,-0.68053646,30.974021,67.658659)"
       style="fill:#000000">
      <path
         d="m 0,0 0,11.535 c 0,0.645 -0.344,1.241 -0.902,1.563 l -20.377,11.765 c -0.559,0.323 -1.246,0.323 -1.805,0 l -9.99,-5.768 c -1.203,-0.694 -1.203,-2.43 0,-3.125 L -2.707,-1.563 C -1.504,-2.257 0,-1.389 0,0"
         style="fill:#000000;fill-opacity:1;fill-rule:nonzero;stroke:none"
         id="path3574"
         inkscape:connector-curvature="0" />
    </g>
    <g
       id="g3576"
       transform="matrix(0.68053646,0,0,-0.68053646,6.4587157,51.185321)"
       style="fill:#000000">
      <path
         d="m 0,0 9.99,5.768 c 0.558,0.322 0.902,0.918 0.902,1.562 l 0,23.529 c 0,0.645 -0.344,1.24 -0.902,1.563 L 0,38.189 c -1.203,0.695 -2.706,-0.173 -2.706,-1.562 l 0,-35.064 C -2.706,0.174 -1.203,-0.694 0,0"
         style="fill:#000000;fill-opacity:1;fill-rule:nonzero;stroke:none"
         id="path3578"
         inkscape:connector-curvature="0" />
    </g>
    <g
       id="g3580"
       transform="matrix(0.68053646,0,0,-0.68053646,8.4657539,21.718024)"
       style="fill:#000000">
      <path
         d="m 0,0 9.99,-5.768 c 0.558,-0.322 1.246,-0.322 1.804,0 L 32.172,5.999 c 0.558,0.322 0.902,0.918 0.902,1.563 l 0,11.534 c 0,1.389 -1.503,2.257 -2.706,1.562 L 0,3.125 C -1.203,2.431 -1.203,0.695 0,0"
         style="fill:#000000;fill-opacity:1;fill-rule:nonzero;stroke:none"
         id="path3582"
         inkscape:connector-curvature="0" />
    </g>
    <g
       id="g3584"
       transform="matrix(0.68053646,0,0,-0.68053646,34.98871,8.7227043)"
       style="fill:#000000">
      <path
         d="m 0,0 0,-11.535 c 0,-0.645 0.344,-1.24 0.902,-1.563 l 20.379,-11.765 c 0.558,-0.323 1.246,-0.323 1.804,0 l 9.991,5.767 c 1.203,0.695 1.203,2.431 0,3.126 L 2.706,1.563 C 1.504,2.257 0,1.389 0,0"
         style="fill:#000000;fill-opacity:1;fill-rule:nonzero;stroke:none"
         id="path3586"
         inkscape:connector-curvature="0" />
    </g>
    <g
       id="g3588"
       transform="matrix(0.68053646,0,0,-0.68053646,57.498474,54.663339)"
       style="stroke:#000000;fill:#ffffff;fill-opacity:1;stroke-width:1.46942899">
      <path
         d="m 0,0 -9.991,5.768 c -0.559,0.322 -1.246,0.322 -1.805,0 L -32.174,-5.997 c -0.559,-0.323 -0.902,-0.918 -0.902,-1.563 l 0,-11.536 c 0,-1.389 1.503,-2.257 2.706,-1.562 L 0,-3.125 C 1.203,-2.431 1.203,-0.694 0,0"
         style="fill-opacity:1;fill-rule:nonzero;stroke:#000000;fill:#ffffff;stroke-width:1.46942899"
         id="path3590"
         inkscape:connector-curvature="0" />
    </g>
    <g
       id="g3592"
       transform="matrix(0.68053646,0,0,-0.68053646,59.50592,25.196042)"
       style="stroke:#000000;fill:#ffffff;fill-opacity:1;stroke-width:1.46942899">
      <path
         d="m 0,0 -9.99,-5.768 c -0.558,-0.322 -0.902,-0.918 -0.902,-1.562 l 0,-23.529 c 0,-0.645 0.344,-1.24 0.902,-1.563 L 0,-38.189 c 1.203,-0.695 2.706,0.173 2.706,1.562 l 0,35.064 C 2.706,-0.174 1.203,0.694 0,0"
         style="fill-opacity:1;fill-rule:nonzero;stroke:#000000;fill:#ffffff;stroke-width:1.46942899"
         id="path3594"
         inkscape:connector-curvature="0" />
    </g>
  </g>
</svg>
