<?xml version="1.0" encoding="UTF-8" standalone="no"?>
<!-- Created with Inkscape (http://www.inkscape.org/) -->

<svg
   xmlns:dc="http://purl.org/dc/elements/1.1/"
   xmlns:cc="http://creativecommons.org/ns#"
   xmlns:rdf="http://www.w3.org/1999/02/22-rdf-syntax-ns#"
   xmlns:svg="http://www.w3.org/2000/svg"
   xmlns="http://www.w3.org/2000/svg"
   xmlns:sodipodi="http://sodipodi.sourceforge.net/DTD/sodipodi-0.dtd"
   xmlns:inkscape="http://www.inkscape.org/namespaces/inkscape"
   id="svg3431"
   version="1.1"
   inkscape:version="0.91 r13725"
   width="535"
   height="245"
   sodipodi:docname="canaan-logo-reverse-0.1.svg"
   inkscape:export-filename="C:\cygwin64\home\rejon\Projects\canaan\style-guide\canaan-logotype-reverse-0.1-1920x879.png"
   inkscape:export-xdpi="322.98999"
   inkscape:export-ydpi="322.98999">
  <metadata
     id="metadata3437">
    <rdf:RDF>
      <cc:Work
         rdf:about="">
        <dc:format>image/svg+xml</dc:format>
        <dc:type
           rdf:resource="http://purl.org/dc/dcmitype/StillImage" />
        <dc:title></dc:title>
      </cc:Work>
    </rdf:RDF>
  </metadata>
  <defs
     id="defs3435" />
  <sodipodi:namedview
     pagecolor="#07538c"
     bordercolor="#666666"
     borderopacity="1"
     objecttolerance="10"
     gridtolerance="10"
     guidetolerance="10"
     inkscape:pageopacity="1"
     inkscape:pageshadow="2"
     inkscape:window-width="1280"
     inkscape:window-height="790"
     id="namedview3433"
     showgrid="false"
     inkscape:zoom="0.59999999"
     inkscape:cx="532.9091"
     inkscape:cy="344.31184"
     inkscape:window-x="-8"
     inkscape:window-y="-8"
     inkscape:window-maximized="1"
     inkscape:current-layer="layer1"
     units="px"
     showborder="true"
     inkscape:showpageshadow="false"
     borderlayer="true" />
  <g
     inkscape:groupmode="layer"
     id="layer1"
     inkscape:label="top"
     style="display:inline"
     transform="translate(0,169)">
    <g
       id="g4193"
       transform="matrix(0.31527769,0,0,0.31527769,-35.166582,99.478062)">
      <path
         style="fill:#ffffff"
         inkscape:connector-curvature="0"
         id="path3062"
         d="m 477.98212,-350.19644 c -23.8289,-14.53301 -50.27635,-28.80416 -75.41453,-43.33717 -2.22577,-1.17835 -4.84433,-1.17835 -7.07011,0 l -37.57634,21.86498 c -4.7134,2.61856 -4.7134,9.55774 0,12.1763 37.70727,21.86498 73.97432,43.59902 112.99087,65.464 4.71341,2.61856 10.47424,-0.78557 10.47424,-6.15362 l 0,-43.72995 c 0,-2.88041 -1.44021,-4.97526 -3.40413,-6.28454 z" />
      <path
         style="fill:#ffffff"
         inkscape:connector-curvature="0"
         id="path3064"
         d="m 400.34182,-533.36471 c 25.92374,-14.79487 53.54955,-29.72066 77.6403,-44.51552 2.22578,-1.30928 3.2732,-3.53506 3.2732,-6.02269 l 0,-43.86088 c 0,-5.36805 -5.89176,-8.90311 -10.47424,-6.15362 -26.97117,15.05672 -51.84749,30.24437 -78.03309,45.17016 -12.30723,7.07011 -24.48353,14.14023 -37.05262,21.34127 -4.71341,2.61856 -4.71341,9.55774 0,12.1763 l 37.70726,21.86498 c 2.09485,1.17835 4.84434,1.17835 6.93919,0 z" />
      <path
         style="fill:#ffffff"
         inkscape:connector-curvature="0"
         id="path3066"
         d="m 387.90366,-419.32643 c 0,-29.06601 -0.13093,-57.87017 0,-86.93619 0,-2.48763 -1.30928,-4.84433 -3.53506,-6.15361 l -37.31448,-21.60312 c -4.71341,-2.61856 -10.47424,0.65464 -10.47424,6.15361 l 0,130.01151 c 0,5.36804 5.89176,8.9031 10.47424,6.15361 l 37.57634,-21.47219 c 1.96392,-1.30928 3.2732,-3.66598 3.2732,-6.15362 z" />
      <path
         style="fill:#ffffff"
         inkscape:connector-curvature="0"
         id="path3068"
         d="m 582.85545,-533.36471 c -25.92375,-14.79487 -53.54955,-29.72066 -77.64031,-44.51552 -2.22577,-1.30928 -3.2732,-3.53506 -3.2732,-6.02269 l 0,-43.86088 c 0,-5.36805 5.89176,-8.90311 10.47424,-6.15362 26.97117,15.05672 51.84749,30.24437 78.03309,45.17016 12.30723,7.07011 24.48354,14.14023 37.05263,21.34127 4.7134,2.61856 4.7134,9.55774 0,12.1763 l -37.70727,21.86498 c -2.09485,1.17835 -4.84433,1.17835 -6.93918,0 z" />
      <path
         style="fill:none;stroke:#ffffff;stroke-width:4;stroke-opacity:1"
         inkscape:connector-curvature="0"
         d="m 504.69143,-350.19644 c 23.8289,-14.53301 50.27635,-28.80416 75.41453,-43.33717 2.22578,-1.17835 4.84434,-1.17835 7.07011,0 l 37.57634,21.86498 c 4.71341,2.61856 4.71341,9.55774 0,12.1763 -37.70727,21.86498 -73.97432,43.59902 -112.99087,65.464 -4.7134,2.61856 -10.47424,-0.78557 -10.47424,-6.15362 l 0,-43.72995 c 0.13093,-2.88041 1.17836,-4.97526 3.40413,-6.28454 z"
         id="path3070" />
      <path
         style="fill:none;stroke:#ffffff;stroke-width:4;stroke-opacity:1"
         inkscape:connector-curvature="0"
         d="m 594.63897,-419.32643 c 0,-29.06601 0.13093,-57.87017 0,-86.93619 0,-2.48763 1.30928,-4.84433 3.53505,-6.15361 l 37.44541,-21.4722 c 4.71341,-2.61856 10.47424,0.65464 10.47424,6.15362 l 0,130.0115 c 0,5.36805 -5.89176,8.90311 -10.47424,6.15362 l -37.57633,-21.60312 c -2.09485,-1.30928 -3.40413,-3.66598 -3.40413,-6.15362 z"
         id="path3072" />
      <g
         id="g3074"
         transform="matrix(3.7081831,0,0,3.7081831,54.16541,-2591.8107)"
         style="display:inline;opacity:0.9;fill:#ffffff">
        <path
           d="m 231.8,584.9 c -2,4 -5,7 -8.4,9.2 -3.6,2.2 -7.6,3.3 -12.1,3.4 -6.4,0.1 -11.9,-2.2 -16.4,-6.9 -4.6,-4.7 -6.9,-10.3 -6.9,-16.7 0,-6.6 2.3,-12.2 6.9,-16.7 4.5,-4.5 9.9,-6.6 16.4,-6.5 4.5,0 8.7,1.1 12.4,3.4 3.6,2.3 6.2,5.2 8.3,9 l -5.1,0 c -3.8,-5.5 -9,-8.2 -15.8,-8.2 -5.1,0 -9.4,1.8 -13,5.5 -3.7,3.7 -5.5,8 -5.6,13.1 -0.1,5.4 1.7,9.9 5.5,13.8 3.7,3.8 8.3,5.9 13.5,5.9 3.1,0 6.1,-0.8 8.9,-2.4 2.8,-1.5 5,-3.4 6.5,-5.7 l 5,0 0,-0.2 z"
           id="path3076"
           inkscape:connector-curvature="0"
           style="fill:#ffffff" />
        <path
           d="m 265.2,579.8 0,0.3 0,16.7 -4.5,0 0,-5.2 c -3.7,4.2 -8.2,6.1 -13.4,6 -4.6,-0.1 -8.5,-1.9 -11.9,-5.4 -3.3,-3.4 -4.8,-7.5 -4.8,-12.2 0,-5 1.8,-9.2 5.2,-12.6 3.4,-3.6 7.6,-5.2 12.6,-5 4.7,0.1 8.8,1.9 12,5.4 3.2,3.2 4.9,7.3 4.8,12 z m -4.6,-0.3 c -0.1,-3.6 -1.4,-6.6 -3.8,-9 -2.4,-2.5 -5.4,-3.8 -8.8,-3.8 -3.6,0 -6.6,1.3 -9.2,3.8 -2.6,2.5 -3.8,5.6 -3.8,9.2 -0.1,3.6 1.1,6.6 3.6,9.3 2.4,2.7 5.4,4.1 8.8,4.2 3.7,0.1 6.9,-1.1 9.4,-3.8 2.6,-2.9 3.9,-6.2 3.8,-9.9 z"
           id="path3078"
           inkscape:connector-curvature="0"
           style="fill:#ffffff" />
        <path
           d="m 299.5,596.7 -4.5,0 0,-19.7 c 0,-2.8 -1,-5.2 -3.1,-7.3 -2,-2 -4.5,-3.1 -7.3,-3.1 -2.8,0 -5.2,1 -7.3,3.1 -2,2 -3.1,4.5 -3.1,7.3 l 0,19.6 -4.5,0 0,-19.1 c 0,-4.3 1.4,-8 4.2,-10.8 2.8,-2.9 6.4,-4.3 10.7,-4.3 4.2,0 7.8,1.4 10.6,4.3 2.8,2.9 4.2,6.5 4.2,10.8 l 0,19.1 0.1,0 z"
           id="path3080"
           inkscape:connector-curvature="0"
           style="fill:#ffffff" />
        <path
           d="m 338.7,579.8 0,0.3 0,16.7 -4.5,0 0,-5.2 c -3.7,4.2 -8.2,6.1 -13.4,6 -4.6,-0.1 -8.5,-1.9 -11.9,-5.4 -3.3,-3.4 -4.8,-7.5 -4.8,-12.2 0,-5 1.8,-9.2 5.2,-12.6 3.4,-3.6 7.6,-5.2 12.6,-5 4.7,0.1 8.8,1.9 12,5.4 3.4,3.2 4.9,7.3 4.8,12 z m -4.5,-0.3 c -0.1,-3.6 -1.4,-6.6 -3.8,-9 -2.4,-2.5 -5.4,-3.8 -8.8,-3.8 -3.6,0 -6.6,1.3 -9.2,3.8 -2.5,2.5 -3.8,5.6 -3.8,9.2 -0.1,3.6 1.1,6.6 3.6,9.3 2.4,2.7 5.4,4.1 8.8,4.2 3.7,0.1 6.9,-1.1 9.4,-3.8 2.7,-2.9 4,-6.2 3.8,-9.9 z"
           id="path3082"
           inkscape:connector-curvature="0"
           style="fill:#ffffff" />
        <path
           d="m 378,579.8 0,0.3 0,16.7 -4.5,0 0,-5.2 c -3.7,4.2 -8.2,6.1 -13.4,6 -4.6,-0.1 -8.5,-1.9 -11.9,-5.4 -3.3,-3.4 -4.8,-7.5 -4.8,-12.2 0,-5 1.8,-9.2 5.2,-12.6 3.4,-3.6 7.6,-5.2 12.6,-5 4.7,0.1 8.8,1.9 12,5.4 3.4,3.2 4.9,7.3 4.8,12 z m -4.5,-0.3 c -0.1,-3.6 -1.4,-6.6 -3.8,-9 -2.4,-2.5 -5.4,-3.8 -8.8,-3.8 -3.6,0 -6.6,1.3 -9.2,3.8 -2.6,2.5 -3.8,5.6 -3.8,9.2 -0.1,3.6 1.1,6.6 3.6,9.3 2.4,2.7 5.4,4.1 8.8,4.2 3.7,0.1 6.9,-1.1 9.4,-3.8 2.5,-2.9 3.8,-6.2 3.8,-9.9 z"
           id="path3084"
           inkscape:connector-curvature="0"
           style="fill:#ffffff" />
        <path
           d="m 412.4,596.7 -4.5,0 0,-19.7 c 0,-2.8 -1,-5.2 -3.1,-7.3 -2,-2 -4.5,-3.1 -7.3,-3.1 -2.8,0 -5.2,1 -7.3,3.1 -2,2 -3.1,4.5 -3.1,7.3 l 0,19.6 -4.5,0 0,-19.1 c 0,-4.3 1.4,-8 4.2,-10.8 2.8,-2.9 6.4,-4.3 10.7,-4.3 4.2,0 7.8,1.4 10.6,4.3 2.8,2.9 4.2,6.5 4.2,10.8 l 0,19.1 0.1,0 z"
           id="path3086"
           inkscape:connector-curvature="0"
           style="fill:#ffffff" />
      </g>
    </g>
  </g>
</svg>
